# xmcd CD database file
#
# Track frame offsets:
#	150
#	35861
#	60146
#	105350
#	131058
#	153919
#	169224
#	187441
#	195065
#	214639
#	240524
#
# Disc length: 3510 seconds
#
# Revision: 2
# Processed by: cddbd v1.5.2PL0 Copyright (c) Steve Scherf et al.
# Submitted via: CDex 2.11
#
DISCID=8e0db40b
DTITLE=Al Di Meola - Opus
DYEAR=2018
DGENRE=NewAge
TTITLE0=Milonga Noctiva (Wandering In The Dark) feat. Kemuel Roig
TTITLE1=Broken Heart
TTITLE2=Ava's Dream Sequence Lullaby
TTITLE3=Cerreto Sannita (My Grandfather's Village Near Napoli) feat. Kemuel Roig
TTITLE4=Notorious
TTITLE5=Frozen In Time
TTITLE6=Escapado
TTITLE7=Pomp
TTITLE8=Left Unsaid
TTITLE9=Insieme
TTITLE10=Rebels (feat. Kemuel Roig)
EXTD=YEAR: 2018
EXTT0=
EXTT1=
EXTT2=
EXTT3=
EXTT4=
EXTT5=
EXTT6=
EXTT7=
EXTT8=
EXTT9=
EXTT10=
PLAYORDER=
